<?xml version="1.0" encoding="utf-8"?>
<!-- Generator: Adobe Illustrator 23.0.3, SVG Export Plug-In . SVG Version: 6.00 Build 0)  -->
<svg version="1.1" xmlns="http://www.w3.org/2000/svg" xmlns:xlink="http://www.w3.org/1999/xlink" x="0px" y="0px"
	 viewBox="0 0 1000 1000" style="enable-background:new 0 0 1000 1000;" xml:space="preserve" preserveAspectRatio="none">
<style type="text/css">
	.st0{fill:#FFFFFF;}
	.st1{opacity:0.06;}
	.st2{fill:none;stroke:#000000;stroke-miterlimit:10;}
	.st3{fill-rule:evenodd;clip-rule:evenodd;fill:#D9EDFF;}
	.st4{fill-rule:evenodd;clip-rule:evenodd;fill:none;stroke:#0084FF;stroke-width:2;stroke-miterlimit:10;}
</style>
<g id="Слой_1">
	<g class="st1">
		<line vector-effect="non-scaling-stroke" class="st2" x1="50" y1="0" x2="50" y2="1000"/>
		<line vector-effect="non-scaling-stroke" class="st2" x1="100" y1="0" x2="100" y2="1000"/>
		<line vector-effect="non-scaling-stroke" class="st2" x1="150" y1="0" x2="150" y2="1000"/>
		<line vector-effect="non-scaling-stroke" class="st2" x1="200" y1="0" x2="200" y2="1000"/>
		<line vector-effect="non-scaling-stroke" class="st2" x1="250" y1="0" x2="250" y2="1000"/>
		<line vector-effect="non-scaling-stroke" class="st2" x1="300" y1="0" x2="300" y2="1000"/>
		<line vector-effect="non-scaling-stroke" class="st2" x1="350" y1="0" x2="350" y2="1000"/>
		<line vector-effect="non-scaling-stroke" class="st2" x1="400" y1="0" x2="400" y2="1000"/>
		<line vector-effect="non-scaling-stroke" class="st2" x1="450" y1="0" x2="450" y2="1000"/>
		<line vector-effect="non-scaling-stroke" class="st2" x1="500" y1="0" x2="500" y2="1000"/>
		<line vector-effect="non-scaling-stroke" class="st2" x1="550" y1="0" x2="550" y2="1000"/>
		<line vector-effect="non-scaling-stroke" class="st2" x1="600" y1="0" x2="600" y2="1000"/>
		<line vector-effect="non-scaling-stroke" class="st2" x1="650" y1="0" x2="650" y2="1000"/>
		<line vector-effect="non-scaling-stroke" class="st2" x1="700" y1="0" x2="700" y2="1000"/>
		<line vector-effect="non-scaling-stroke" class="st2" x1="750" y1="0" x2="750" y2="1000"/>
		<line vector-effect="non-scaling-stroke" class="st2" x1="800" y1="0" x2="800" y2="1000"/>
		<line vector-effect="non-scaling-stroke" class="st2" x1="850" y1="0" x2="850" y2="1000"/>
		<line vector-effect="non-scaling-stroke" class="st2" x1="900" y1="0" x2="900" y2="1000"/>
		<line vector-effect="non-scaling-stroke" class="st2" x1="950" y1="0" x2="950" y2="1000"/>
	</g>
	<path class="st3" d="M0,819.28l50,19.01l50-16.72l50,10.21l50-13.48l50,25.42l50-32.52l50,1.68l51.4,28.67l48.6,6.51l50.18,25.51
		L550,835.03l50,9.66l50,2.47l50,18.81l50-80.34l50-129.69l50-234.99l49.54-85.75L950,109.42L1000,0v1000H0V819.28z"/>
	<path vector-effect="non-scaling-stroke" class="st4" d="M0,819.28l50,19.01l50-16.72l50,10.21l50-13.48l50,25.42l50-32.52l50,1.68l51.4,28.67l48.6,6.51l50.18,25.51
		L550,835.03l50,9.66l50,2.47l50,18.81l50-80.34l50-129.69l50-234.99l49.54-85.75L950,109.42L1000,0"/>
</g>
</svg>
